# xmcd CD database file
#
# Track frame offsets:
#	150
#	36332
#	59149
#	82369
#	118519
#	166412
#	207790
#	233560
#	283548
#
# Disc length: 4396 seconds
#
# Revision: 0
# Processed by: cddbd v1.4PL0 Copyright (c) Steve Scherf et al.
# Submitted via: CDex 1.50beta9
#
DISCID=81112a09
DTITLE=Harry Pepl - Airmail - light blues
DYEAR=1988
DGENRE=Jazz
TTITLE0=The Halley's Comet - Light blue blues
TTITLE1=Shifting people
TTITLE2=Oxford circle
TTITLE3=Fleacircus
TTITLE4=Camomile Tea
TTITLE5=Epominonus, where are you?
TTITLE6=125/250
TTITLE7=Airlove and vitamines
TTITLE8=Radlbremser
EXTD=YEAR: 1988
EXTT0=
EXTT1=
EXTT2=
EXTT3=
EXTT4=
EXTT5=
EXTT6=
EXTT7=
EXTT8=
PLAYORDER=
